<svg width="73" height="84" viewBox="0 0 73 84" fill="none" xmlns="http://www.w3.org/2000/svg">
<path d="M6.9 24.3L6.0588 23.7592L6.05492 23.7654L6.9 24.3ZM31.8 24.3L30.9549 24.8347L30.9588 24.8408L31.8 24.3ZM31.8 56.94L30.9563 56.4031L30.9525 56.4092L31.8 56.94ZM6.9 56.94L6.05246 57.4708L6.05634 57.4769L6.9 56.94ZM26.7 33.12L25.7152 33.2938L25.7172 33.305L25.7194 33.3161L26.7 33.12ZM24.42 28.14L23.6674 28.7985L23.6732 28.8051L23.679 28.8115L24.42 28.14ZM14.28 28.14L13.539 27.4685L13.5332 27.4749L13.5274 27.4815L14.28 28.14ZM12 33.12L11.0187 32.9276L11.0172 32.9352L11.0158 32.9428L12 33.12ZM12 48.24L11.0146 48.4105L11.0152 48.4138L12 48.24ZM14.28 53.22L13.539 53.8915L13.5443 53.8974L13.5497 53.9032L14.28 53.22ZM24.48 53.22L25.2103 53.9032L25.2157 53.8974L25.221 53.8915L24.48 53.22ZM26.76 48.24L27.7448 48.4138L27.7454 48.4105L26.76 48.24ZM4.18 40.56C4.18 33.7422 5.40448 28.5343 7.74508 24.8346L6.05492 23.7654C3.43552 27.9057 2.18 33.5378 2.18 40.56H4.18ZM7.74118 24.8408C10.031 21.2787 13.8251 19.42 19.38 19.42V17.42C13.3349 17.42 8.80895 19.4813 6.05882 23.7592L7.74118 24.8408ZM19.38 19.42C24.9354 19.42 28.7052 21.2787 30.9549 24.8346L32.6451 23.7654C29.9348 19.4813 25.4246 17.42 19.38 17.42V19.42ZM30.9588 24.8408C33.3363 28.5391 34.58 33.7445 34.58 40.56H36.58C36.58 33.5355 35.3037 27.9009 32.6412 23.7592L30.9588 24.8408ZM34.58 40.56C34.58 47.416 33.3362 52.6634 30.9563 56.4031L32.6437 57.4769C35.3038 53.2966 36.58 47.624 36.58 40.56H34.58ZM30.9525 56.4092C28.7009 60.0046 24.9311 61.88 19.38 61.88V63.88C25.4289 63.88 29.9391 61.7954 32.6475 57.4708L30.9525 56.4092ZM19.38 61.88C13.8294 61.88 10.0354 60.0044 7.74366 56.4031L6.05634 57.4769C8.80459 61.7956 13.3306 63.88 19.38 63.88V61.88ZM7.74752 56.4092C5.40461 52.6681 4.18 47.4182 4.18 40.56H2.18C2.18 47.6218 3.43539 53.2919 6.05248 57.4708L7.74752 56.4092ZM28.3 40.56C28.3 37.5608 28.0978 35.0102 27.6806 32.9239L25.7194 33.3161C26.1022 35.2298 26.3 37.6392 26.3 40.56H28.3ZM27.6848 32.9462C27.2986 30.7579 26.4708 28.9137 25.161 27.4685L23.679 28.8115C24.6892 29.9263 25.3814 31.402 25.7152 33.2938L27.6848 32.9462ZM25.1726 27.4815C23.807 25.9209 21.8114 25.22 19.38 25.22V27.22C21.4286 27.22 22.793 27.7991 23.6674 28.7985L25.1726 27.4815ZM19.38 25.22C16.9465 25.22 14.941 25.9215 13.539 27.4685L15.021 28.8115C15.939 27.7985 17.3335 27.22 19.38 27.22V25.22ZM13.5274 27.4815C12.2683 28.9205 11.4451 30.753 11.0187 32.9276L12.9813 33.3124C13.3549 31.407 14.0517 29.9195 15.0326 28.7985L13.5274 27.4815ZM11.0158 32.9428C10.6417 35.0211 10.46 37.5649 10.46 40.56H12.46C12.46 37.6351 12.6383 35.2189 12.9842 33.2971L11.0158 32.9428ZM10.46 40.56C10.46 43.6346 10.6417 46.2556 11.0146 48.4105L12.9854 48.0695C12.6383 46.0644 12.46 43.5654 12.46 40.56H10.46ZM11.0152 48.4138C11.4014 50.6021 12.2292 52.4463 13.539 53.8915L15.021 52.5485C14.0108 51.4337 13.3186 49.958 12.9848 48.0662L11.0152 48.4138ZM13.5497 53.9032C14.9539 55.4042 16.9558 56.08 19.38 56.08V54.08C17.3242 54.08 15.9261 53.5158 15.0103 52.5368L13.5497 53.9032ZM19.38 56.08C21.8042 56.08 23.8061 55.4042 25.2103 53.9032L23.7497 52.5368C22.8339 53.5158 21.4358 54.08 19.38 54.08V56.08ZM25.221 53.8915C26.5308 52.4463 27.3586 50.6021 27.7448 48.4138L25.7752 48.0662C25.4414 49.958 24.7492 51.4337 23.739 52.5485L25.221 53.8915ZM27.7454 48.4105C28.1183 46.2556 28.3 43.6346 28.3 40.56H26.3C26.3 43.5654 26.1217 46.0644 25.7747 48.0695L27.7454 48.4105ZM40.9491 27H39.9491V28H40.9491V27ZM40.9491 19.26V18.26H39.9491V19.26H40.9491ZM55.4091 19.26H56.4091V18.26H55.4091V19.26ZM55.4091 63V64H56.4091V63H55.4091ZM46.7691 63H45.7691V64H46.7691V63ZM46.7691 27H47.7691V26H46.7691V27ZM41.9491 27V19.26H39.9491V27H41.9491ZM40.9491 20.26H55.4091V18.26H40.9491V20.26ZM54.4091 19.26V63H56.4091V19.26H54.4091ZM55.4091 62H46.7691V64H55.4091V62ZM47.7691 63V27H45.7691V63H47.7691ZM46.7691 26H40.9491V28H46.7691V26ZM71.6273 39.325L72.5999 39.5578L72.895 38.325H71.6273V39.325ZM64.8773 67.525V68.525H65.6662L65.8499 67.7578L64.8773 67.525ZM61.4523 67.525L60.4798 67.2922L60.1847 68.525H61.4523V67.525ZM68.2023 39.325V38.325H67.4135L67.2298 39.0922L68.2023 39.325ZM70.6548 39.0922L63.9048 67.2922L65.8499 67.7578L72.5999 39.5578L70.6548 39.0922ZM64.8773 66.525H61.4523V68.525H64.8773V66.525ZM62.4249 67.7578L69.1749 39.5578L67.2298 39.0922L60.4798 67.2922L62.4249 67.7578ZM68.2023 40.325H71.6273V38.325H68.2023V40.325Z" fill="url(#paint0_linear_1_255)"/>
<defs>
<linearGradient id="paint0_linear_1_255" x1="36.5" y1="0" x2="36.5" y2="76.5" gradientUnits="userSpaceOnUse">
<stop stop-color="#FFF0F0"/>
<stop offset="1" stop-color="#FFF0F0" stop-opacity="0"/>
</linearGradient>
</defs>
</svg>
