<svg width="86" height="84" viewBox="0 0 86 84" fill="none" xmlns="http://www.w3.org/2000/svg">
<path d="M6.9 24.3L6.0588 23.7592L6.05492 23.7653L6.9 24.3ZM31.8 24.3L30.9549 24.8346L30.9588 24.8407L31.8 24.3ZM31.8 56.94L30.9563 56.4031L30.9525 56.4092L31.8 56.94ZM6.9 56.94L6.05246 57.4708L6.05634 57.4768L6.9 56.94ZM26.7 33.12L25.7152 33.2938L25.7172 33.3049L25.7194 33.3161L26.7 33.12ZM24.42 28.14L23.6674 28.7985L23.6732 28.805L23.679 28.8115L24.42 28.14ZM14.28 28.14L13.539 27.4684L13.5332 27.4749L13.5274 27.4815L14.28 28.14ZM12 33.12L11.0187 32.9276L11.0172 32.9352L11.0158 32.9428L12 33.12ZM12 48.24L11.0146 48.4105L11.0152 48.4138L12 48.24ZM14.28 53.22L13.539 53.8915L13.5443 53.8974L13.5497 53.9031L14.28 53.22ZM24.48 53.22L25.2103 53.9031L25.2157 53.8974L25.221 53.8915L24.48 53.22ZM26.76 48.24L27.7448 48.4138L27.7454 48.4105L26.76 48.24ZM4.18 40.56C4.18 33.7422 5.40448 28.5343 7.74508 24.8346L6.05492 23.7653C3.43552 27.9057 2.18 33.5378 2.18 40.56H4.18ZM7.74118 24.8407C10.031 21.2787 13.8251 19.42 19.38 19.42V17.42C13.3349 17.42 8.80895 19.4812 6.05882 23.7592L7.74118 24.8407ZM19.38 19.42C24.9354 19.42 28.7052 21.2786 30.9549 24.8346L32.6451 23.7653C29.9348 19.4813 25.4246 17.42 19.38 17.42V19.42ZM30.9588 24.8407C33.3363 28.5391 34.58 33.7444 34.58 40.56H36.58C36.58 33.5355 35.3037 27.9009 32.6412 23.7592L30.9588 24.8407ZM34.58 40.56C34.58 47.4159 33.3362 52.6633 30.9563 56.4031L32.6437 57.4768C35.3038 53.2966 36.58 47.624 36.58 40.56H34.58ZM30.9525 56.4092C28.7009 60.0045 24.9311 61.88 19.38 61.88V63.88C25.4289 63.88 29.9391 61.7954 32.6475 57.4707L30.9525 56.4092ZM19.38 61.88C13.8294 61.88 10.0354 60.0044 7.74366 56.4031L6.05634 57.4768C8.80459 61.7955 13.3306 63.88 19.38 63.88V61.88ZM7.74752 56.4092C5.40461 52.6681 4.18 47.4182 4.18 40.56H2.18C2.18 47.6218 3.43539 53.2918 6.05248 57.4707L7.74752 56.4092ZM28.3 40.56C28.3 37.5608 28.0978 35.0102 27.6806 32.9239L25.7194 33.3161C26.1022 35.2298 26.3 37.6392 26.3 40.56H28.3ZM27.6848 32.9462C27.2986 30.7579 26.4708 28.9137 25.161 27.4684L23.679 28.8115C24.6892 29.9262 25.3814 31.402 25.7152 33.2938L27.6848 32.9462ZM25.1726 27.4815C23.807 25.9208 21.8114 25.22 19.38 25.22V27.22C21.4286 27.22 22.793 27.7991 23.6674 28.7985L25.1726 27.4815ZM19.38 25.22C16.9465 25.22 14.941 25.9215 13.539 27.4684L15.021 28.8115C15.939 27.7985 17.3335 27.22 19.38 27.22V25.22ZM13.5274 27.4815C12.2683 28.9205 11.4451 30.753 11.0187 32.9276L12.9813 33.3124C13.3549 31.4069 14.0517 29.9194 15.0326 28.7985L13.5274 27.4815ZM11.0158 32.9428C10.6417 35.0211 10.46 37.5648 10.46 40.56H12.46C12.46 37.6351 12.6383 35.2188 12.9842 33.2971L11.0158 32.9428ZM10.46 40.56C10.46 43.6345 10.6417 46.2556 11.0146 48.4105L12.9854 48.0694C12.6383 46.0643 12.46 43.5654 12.46 40.56H10.46ZM11.0152 48.4138C11.4014 50.602 12.2292 52.4462 13.539 53.8915L15.021 52.5485C14.0108 51.4337 13.3186 49.9579 12.9848 48.0662L11.0152 48.4138ZM13.5497 53.9031C14.9539 55.4042 16.9558 56.08 19.38 56.08V54.08C17.3242 54.08 15.9261 53.5158 15.0103 52.5368L13.5497 53.9031ZM19.38 56.08C21.8042 56.08 23.8061 55.4042 25.2103 53.9031L23.7497 52.5368C22.8339 53.5158 21.4358 54.08 19.38 54.08V56.08ZM25.221 53.8915C26.5308 52.4462 27.3586 50.602 27.7448 48.4138L25.7752 48.0662C25.4414 49.9579 24.7492 51.4337 23.739 52.5485L25.221 53.8915ZM27.7454 48.4105C28.1183 46.2556 28.3 43.6345 28.3 40.56H26.3C26.3 43.5654 26.1217 46.0643 25.7747 48.0694L27.7454 48.4105ZM44.6091 53.52L43.9689 52.7517L43.9631 52.7566L44.6091 53.52ZM53.7891 45.54L54.47 46.2723L54.4768 46.2659L53.7891 45.54ZM59.4891 38.82L60.3255 39.368L60.3255 39.368L59.4891 38.82ZM60.3291 27.18L59.5587 27.8175L60.3291 27.18ZM51.2691 27.48L52.043 28.1132L52.0476 28.1076L52.0522 28.1019L51.2691 27.48ZM49.5891 32.94V33.94H50.572L50.5889 32.9572L49.5891 32.94ZM41.4291 32.94L40.4296 32.9067L40.3952 33.94H41.4291V32.94ZM45.6891 22.02L45.0153 21.281L45.0099 21.286L45.6891 22.02ZM66.5091 21.96L65.8019 22.6671L65.8078 22.6729L66.5091 21.96ZM67.6491 40.44L68.5098 40.9491V40.9491L67.6491 40.44ZM61.8891 47.88L62.5827 48.6003L62.5895 48.5937L61.8891 47.88ZM53.4291 55.44L52.7812 54.6782L50.7099 56.44H53.4291V55.44ZM71.1291 55.44H72.1291V54.44H71.1291V55.44ZM71.1291 62.4V63.4H72.1291V62.4H71.1291ZM41.4891 62.4H40.4891V63.4H41.4891V62.4ZM41.4891 56.16L40.8431 55.3966L40.4891 55.6962V56.16H41.4891ZM45.2492 54.2882C49.0959 51.0826 52.1713 48.4097 54.47 46.2723L53.1081 44.8076C50.8468 46.9102 47.8022 49.5573 43.9689 52.7517L45.2492 54.2882ZM54.4768 46.2659C56.8058 44.0595 58.7579 41.7608 60.3255 39.368L58.6526 38.2719C57.1803 40.5192 55.3323 42.7005 53.1013 44.814L54.4768 46.2659ZM60.3255 39.368C61.9267 36.924 62.7691 34.4565 62.7691 31.98H60.7691C60.7691 33.9834 60.0914 36.0759 58.6526 38.2719L60.3255 39.368ZM62.7691 31.98C62.7691 29.7898 62.2531 27.9364 61.0995 26.5424L59.5587 27.8175C60.325 28.7435 60.7691 30.0902 60.7691 31.98H62.7691ZM61.0995 26.5424C59.8917 25.083 58.0826 24.44 55.8891 24.44V26.44C57.6955 26.44 58.8464 26.9569 59.5587 27.8175L61.0995 26.5424ZM55.8891 24.44C53.6361 24.44 51.7859 25.2212 50.486 26.8581L52.0522 28.1019C52.9123 27.0188 54.142 26.44 55.8891 26.44V24.44ZM50.4951 26.8467C49.229 28.3943 48.6317 30.4583 48.5892 32.9227L50.5889 32.9572C50.6264 30.7817 51.1492 29.2057 52.043 28.1132L50.4951 26.8467ZM49.5891 31.94H41.4291V33.94H49.5891V31.94ZM42.4285 32.9733C42.5825 28.3527 43.9404 25.0006 46.3683 22.7539L45.0099 21.286C42.0778 23.9993 40.5956 27.9272 40.4296 32.9067L42.4285 32.9733ZM46.3628 22.7589C48.8744 20.469 52.0635 19.3 56.0091 19.3V17.3C51.6347 17.3 47.9438 18.611 45.0153 21.281L46.3628 22.7589ZM56.0091 19.3C60.3922 19.3 63.6039 20.469 65.802 22.6671L67.2162 21.2529C64.5342 18.5709 60.7459 17.3 56.0091 17.3V19.3ZM65.8078 22.6729C68.0264 24.8551 69.1691 27.7624 69.1691 31.5H71.1691C71.1691 27.3176 69.8717 23.8648 67.2103 21.247L65.8078 22.6729ZM69.1691 31.5C69.1691 34.4304 68.3826 37.2358 66.7884 39.9308L68.5098 40.9491C70.2755 37.9642 71.1691 34.8095 71.1691 31.5H69.1691ZM66.7884 39.9308C65.1487 42.7027 63.2812 45.1124 61.1886 47.1663L62.5895 48.5937C64.8169 46.4075 66.7894 43.8573 68.5098 40.9491L66.7884 39.9308ZM61.1954 47.1596C59.0558 49.2201 56.2527 51.7255 52.7812 54.6782L54.077 56.2017C57.5655 53.2345 60.4024 50.6999 62.5827 48.6003L61.1954 47.1596ZM53.4291 56.44H71.1291V54.44H53.4291V56.44ZM70.1291 55.44V62.4H72.1291V55.44H70.1291ZM71.1291 61.4H41.4891V63.4H71.1291V61.4ZM42.4891 62.4V56.16H40.4891V62.4H42.4891ZM42.135 56.9234L45.255 54.2834L43.9631 52.7566L40.8431 55.3966L42.135 56.9234ZM84.3422 39.325L85.3147 39.5578L85.6098 38.325H84.3422V39.325ZM77.5922 67.525V68.525H78.3811L78.5647 67.7578L77.5922 67.525ZM74.1672 67.525L73.1947 67.2922L72.8996 68.525H74.1672V67.525ZM80.9172 39.325V38.325H80.1283L79.9447 39.0922L80.9172 39.325ZM83.3697 39.0922L76.6197 67.2922L78.5647 67.7578L85.3147 39.5578L83.3697 39.0922ZM77.5922 66.525H74.1672V68.525H77.5922V66.525ZM75.1397 67.7578L81.8897 39.5578L79.9447 39.0922L73.1947 67.2922L75.1397 67.7578ZM80.9172 40.325H84.3422V38.325H80.9172V40.325Z" fill="url(#paint0_linear_1_230)"/>
<defs>
<linearGradient id="paint0_linear_1_230" x1="43" y1="-3.05176e-05" x2="43" y2="76.5" gradientUnits="userSpaceOnUse">
<stop stop-color="#FFF0F0"/>
<stop offset="1" stop-color="#FFF0F0" stop-opacity="0"/>
</linearGradient>
</defs>
</svg>
