<svg width="87" height="84" viewBox="0 0 87 84" fill="none" xmlns="http://www.w3.org/2000/svg">
<path d="M6.9 24.3L6.0588 23.7592L6.05492 23.7654L6.9 24.3ZM31.8 24.3L30.9549 24.8347L30.9588 24.8408L31.8 24.3ZM31.8 56.94L30.9563 56.4031L30.9525 56.4092L31.8 56.94ZM6.9 56.94L6.05246 57.4708L6.05634 57.4769L6.9 56.94ZM26.7 33.12L25.7152 33.2938L25.7172 33.305L25.7194 33.3161L26.7 33.12ZM24.42 28.14L23.6674 28.7985L23.6732 28.8051L23.679 28.8115L24.42 28.14ZM14.28 28.14L13.539 27.4685L13.5332 27.4749L13.5274 27.4815L14.28 28.14ZM12 33.12L11.0187 32.9276L11.0172 32.9352L11.0158 32.9428L12 33.12ZM12 48.24L11.0146 48.4105L11.0152 48.4138L12 48.24ZM14.28 53.22L13.539 53.8915L13.5443 53.8974L13.5497 53.9032L14.28 53.22ZM24.48 53.22L25.2103 53.9032L25.2157 53.8974L25.221 53.8915L24.48 53.22ZM26.76 48.24L27.7448 48.4138L27.7454 48.4105L26.76 48.24ZM4.18 40.56C4.18 33.7422 5.40448 28.5343 7.74508 24.8346L6.05492 23.7654C3.43552 27.9057 2.18 33.5378 2.18 40.56H4.18ZM7.74118 24.8408C10.031 21.2787 13.8251 19.42 19.38 19.42V17.42C13.3349 17.42 8.80895 19.4813 6.05882 23.7592L7.74118 24.8408ZM19.38 19.42C24.9354 19.42 28.7052 21.2787 30.9549 24.8346L32.6451 23.7654C29.9348 19.4813 25.4246 17.42 19.38 17.42V19.42ZM30.9588 24.8408C33.3363 28.5391 34.58 33.7445 34.58 40.56H36.58C36.58 33.5355 35.3037 27.9009 32.6412 23.7592L30.9588 24.8408ZM34.58 40.56C34.58 47.416 33.3362 52.6634 30.9563 56.4031L32.6437 57.4769C35.3038 53.2966 36.58 47.624 36.58 40.56H34.58ZM30.9525 56.4092C28.7009 60.0046 24.9311 61.88 19.38 61.88V63.88C25.4289 63.88 29.9391 61.7954 32.6475 57.4708L30.9525 56.4092ZM19.38 61.88C13.8294 61.88 10.0354 60.0044 7.74366 56.4031L6.05634 57.4769C8.80459 61.7956 13.3306 63.88 19.38 63.88V61.88ZM7.74752 56.4092C5.40461 52.6681 4.18 47.4182 4.18 40.56H2.18C2.18 47.6218 3.43539 53.2919 6.05248 57.4708L7.74752 56.4092ZM28.3 40.56C28.3 37.5608 28.0978 35.0102 27.6806 32.9239L25.7194 33.3161C26.1022 35.2298 26.3 37.6392 26.3 40.56H28.3ZM27.6848 32.9462C27.2986 30.7579 26.4708 28.9137 25.161 27.4685L23.679 28.8115C24.6892 29.9263 25.3814 31.402 25.7152 33.2938L27.6848 32.9462ZM25.1726 27.4815C23.807 25.9209 21.8114 25.22 19.38 25.22V27.22C21.4286 27.22 22.793 27.7991 23.6674 28.7985L25.1726 27.4815ZM19.38 25.22C16.9465 25.22 14.941 25.9215 13.539 27.4685L15.021 28.8115C15.939 27.7985 17.3335 27.22 19.38 27.22V25.22ZM13.5274 27.4815C12.2683 28.9205 11.4451 30.753 11.0187 32.9276L12.9813 33.3124C13.3549 31.407 14.0517 29.9195 15.0326 28.7985L13.5274 27.4815ZM11.0158 32.9428C10.6417 35.0211 10.46 37.5649 10.46 40.56H12.46C12.46 37.6351 12.6383 35.2189 12.9842 33.2971L11.0158 32.9428ZM10.46 40.56C10.46 43.6346 10.6417 46.2556 11.0146 48.4105L12.9854 48.0695C12.6383 46.0644 12.46 43.5654 12.46 40.56H10.46ZM11.0152 48.4138C11.4014 50.6021 12.2292 52.4463 13.539 53.8915L15.021 52.5485C14.0108 51.4337 13.3186 49.958 12.9848 48.0662L11.0152 48.4138ZM13.5497 53.9032C14.9539 55.4042 16.9558 56.08 19.38 56.08V54.08C17.3242 54.08 15.9261 53.5158 15.0103 52.5368L13.5497 53.9032ZM19.38 56.08C21.8042 56.08 23.8061 55.4042 25.2103 53.9032L23.7497 52.5368C22.8339 53.5158 21.4358 54.08 19.38 54.08V56.08ZM25.221 53.8915C26.5308 52.4463 27.3586 50.6021 27.7448 48.4138L25.7752 48.0662C25.4414 49.958 24.7492 51.4337 23.739 52.5485L25.221 53.8915ZM27.7454 48.4105C28.1183 46.2556 28.3 43.6346 28.3 40.56H26.3C26.3 43.5654 26.1217 46.0644 25.7747 48.0695L27.7454 48.4105ZM42.0891 30.78L41.0903 30.7301L41.0378 31.78H42.0891V30.78ZM46.2891 21.54L46.9281 22.3092L46.9292 22.3082L46.2891 21.54ZM64.1691 19.8L63.7218 20.6944L63.7288 20.6979L63.7358 20.7013L64.1691 19.8ZM68.8491 23.94L67.9881 24.4487L67.995 24.4603L68.0022 24.4718L68.8491 23.94ZM68.4891 36.24L67.6891 35.64L67.6868 35.643L68.4891 36.24ZM63.8691 39.72L63.5528 38.7713L62.8691 38.9992V39.72H63.8691ZM63.8691 39.96H62.8691V40.6967L63.5727 40.9151L63.8691 39.96ZM69.2691 43.8L68.4482 44.3711L68.4523 44.377L68.4565 44.3829L69.2691 43.8ZM69.5691 57.3L68.71 56.7882L68.7059 56.795L68.702 56.8019L69.5691 57.3ZM64.7091 61.74L65.1495 62.6378L65.1563 62.6344L64.7091 61.74ZM45.9891 59.88L45.363 60.6598L45.9891 59.88ZM41.4891 49.8V48.8H40.4524L40.4897 49.836L41.4891 49.8ZM49.6491 49.8L50.6482 49.7592L50.6091 48.8H49.6491V49.8ZM51.6291 54.54L50.9336 55.2586L50.9454 55.27L50.9575 55.281L51.6291 54.54ZM61.5291 54.6L60.8097 53.9054L60.8092 53.9059L61.5291 54.6ZM52.1091 43.44H51.1091V44.44H52.1091V43.44ZM52.1091 36.54V35.54H51.1091V36.54H52.1091ZM60.8091 26.82L60.1165 27.5414L60.1236 27.5482L60.1308 27.5548L60.8091 26.82ZM52.0491 26.94L52.7562 27.6471H52.7562L52.0491 26.94ZM50.3091 30.78V31.78H51.2117L51.3038 30.882L50.3091 30.78ZM43.0878 30.8299C43.2767 27.0532 44.5832 24.2573 46.9281 22.3092L45.65 20.7708C42.7949 23.1427 41.3015 26.5068 41.0903 30.7301L43.0878 30.8299ZM46.9292 22.3082C49.3488 20.2919 52.5639 19.24 56.6691 19.24V17.24C52.2143 17.24 48.5093 18.3881 45.6489 20.7718L46.9292 22.3082ZM56.6691 19.24C59.4725 19.24 61.8116 19.7393 63.7218 20.6944L64.6163 18.9056C62.3665 17.7807 59.7056 17.24 56.6691 17.24V19.24ZM63.7358 20.7013C65.6613 21.627 67.0614 22.8803 67.9881 24.4487L69.71 23.4313C68.5568 21.4797 66.8368 19.973 64.6024 18.8987L63.7358 20.7013ZM68.0022 24.4718C68.9738 26.0192 69.4691 27.7918 69.4691 29.82H71.4691C71.4691 27.4481 70.8843 25.3008 69.696 23.4082L68.0022 24.4718ZM69.4691 29.82C69.4691 32.1565 68.8608 34.0776 67.6891 35.64L69.2891 36.84C70.7573 34.8824 71.4691 32.5235 71.4691 29.82H69.4691ZM67.6868 35.643C66.5125 37.221 65.134 38.2443 63.5528 38.7713L64.1853 40.6687C66.2041 39.9957 67.9056 38.699 69.2913 36.837L67.6868 35.643ZM62.8691 39.72V39.96H64.8691V39.72H62.8691ZM63.5727 40.9151C65.6989 41.5749 67.3063 42.7296 68.4482 44.3711L70.09 43.2289C68.6719 41.1904 66.6792 39.7851 64.1655 39.0049L63.5727 40.9151ZM68.4565 44.3829C69.6251 46.0118 70.2491 48.1521 70.2491 50.88H72.2491C72.2491 47.8479 71.553 45.2682 70.0816 43.2171L68.4565 44.3829ZM70.2491 50.88C70.2491 53.1178 69.729 55.0777 68.71 56.7882L70.4282 57.8118C71.6492 55.7623 72.2491 53.4422 72.2491 50.88H70.2491ZM68.702 56.8019C67.7309 58.4923 66.2667 59.8431 64.2618 60.8456L65.1563 62.6344C67.4714 61.4769 69.2473 59.8677 70.4362 57.7981L68.702 56.8019ZM64.2686 60.8422C62.3177 61.7993 59.9165 62.3 57.0291 62.3V64.3C60.1417 64.3 62.8605 63.7607 65.1495 62.6378L64.2686 60.8422ZM57.0291 62.3C52.6804 62.3 49.2381 61.206 46.6151 59.1002L45.363 60.6598C48.42 63.114 52.3377 64.3 57.0291 64.3V62.3ZM46.6151 59.1002C44.0509 57.0416 42.6405 53.9832 42.4884 49.764L40.4897 49.836C40.6577 54.4968 42.2472 58.1584 45.363 60.6598L46.6151 59.1002ZM41.4891 50.8H49.6491V48.8H41.4891V50.8ZM48.6499 49.8408C48.7388 52.0194 49.4836 53.8553 50.9336 55.2586L52.3245 53.8214C51.2946 52.8247 50.7193 51.5006 50.6482 49.7592L48.6499 49.8408ZM50.9575 55.281C52.4676 56.6495 54.4711 57.28 56.8491 57.28V55.28C54.8271 55.28 53.3505 54.7505 52.3006 53.799L50.9575 55.281ZM56.8491 57.28C59.0723 57.28 60.9269 56.6651 62.2489 55.2941L60.8092 53.9059C59.9713 54.7749 58.7058 55.28 56.8491 55.28V57.28ZM62.2485 55.2946C63.57 53.9258 64.2091 52.1863 64.2091 50.16H62.2091C62.2091 51.7337 61.7281 52.9542 60.8097 53.9054L62.2485 55.2946ZM64.2091 50.16C64.2091 47.5412 63.3667 45.4562 61.4937 44.1747L60.3644 45.8253C61.5315 46.6238 62.2091 47.9788 62.2091 50.16H64.2091ZM61.4937 44.1747C59.7246 42.9642 57.1191 42.44 53.8491 42.44V44.44C56.979 44.44 59.0935 44.9558 60.3644 45.8253L61.4937 44.1747ZM53.8491 42.44H52.1091V44.44H53.8491V42.44ZM53.1091 43.44V36.54H51.1091V43.44H53.1091ZM52.1091 37.54H53.8491V35.54H52.1091V37.54ZM53.8491 37.54C56.769 37.54 59.1342 37.0574 60.7951 35.9461C62.5272 34.7874 63.3691 33.0298 63.3691 30.84H61.3691C61.3691 32.4502 60.7909 33.5426 59.683 34.2839C58.504 35.0726 56.6091 35.54 53.8491 35.54V37.54ZM63.3691 30.84C63.3691 28.9058 62.7757 27.2744 61.4873 26.0852L60.1308 27.5548C60.9224 28.2856 61.3691 29.3342 61.3691 30.84H63.3691ZM61.5016 26.0986C60.2536 24.9005 58.5065 24.38 56.4291 24.38V26.38C58.1916 26.38 59.3645 26.8195 60.1165 27.5414L61.5016 26.0986ZM56.4291 24.38C54.3612 24.38 52.6179 24.9569 51.342 26.2329L52.7562 27.6471C53.5602 26.8431 54.7369 26.38 56.4291 26.38V24.38ZM51.342 26.2329C50.1615 27.4134 49.495 28.9157 49.3143 30.678L51.3038 30.882C51.4431 29.5243 51.9367 28.4666 52.7562 27.6471L51.342 26.2329ZM50.3091 29.78H42.0891V31.78H50.3091V29.78ZM85.807 39.325L86.7796 39.5578L87.0746 38.325H85.807V39.325ZM79.057 67.525V68.525H79.8459L80.0296 67.7578L79.057 67.525ZM75.632 67.525L74.6595 67.2922L74.3644 68.525H75.632V67.525ZM82.382 39.325V38.325H81.5931L81.4095 39.0922L82.382 39.325ZM84.8345 39.0922L78.0845 67.2922L80.0296 67.7578L86.7796 39.5578L84.8345 39.0922ZM79.057 66.525H75.632V68.525H79.057V66.525ZM76.6046 67.7578L83.3546 39.5578L81.4095 39.0922L74.6595 67.2922L76.6046 67.7578ZM82.382 40.325H85.807V38.325H82.382V40.325Z" fill="url(#paint0_linear_1_246)"/>
<defs>
<linearGradient id="paint0_linear_1_246" x1="43.5" y1="0" x2="43.5" y2="76.5" gradientUnits="userSpaceOnUse">
<stop stop-color="#FFF0F0"/>
<stop offset="1" stop-color="#FFF0F0" stop-opacity="0"/>
</linearGradient>
</defs>
</svg>
