<svg width="91" height="84" viewBox="0 0 91 84" fill="none" xmlns="http://www.w3.org/2000/svg">
<path d="M6.9 24.3L6.0588 23.7592L6.05492 23.7654L6.9 24.3ZM31.8 24.3L30.9549 24.8347L30.9588 24.8408L31.8 24.3ZM31.8 56.94L30.9563 56.4031L30.9525 56.4092L31.8 56.94ZM6.9 56.94L6.05246 57.4708L6.05634 57.4769L6.9 56.94ZM26.7 33.12L25.7152 33.2938L25.7172 33.305L25.7194 33.3161L26.7 33.12ZM24.42 28.14L23.6674 28.7985L23.6732 28.8051L23.679 28.8115L24.42 28.14ZM14.28 28.14L13.539 27.4685L13.5332 27.4749L13.5274 27.4815L14.28 28.14ZM12 33.12L11.0187 32.9276L11.0172 32.9352L11.0158 32.9428L12 33.12ZM12 48.24L11.0146 48.4105L11.0152 48.4138L12 48.24ZM14.28 53.22L13.539 53.8915L13.5443 53.8974L13.5497 53.9032L14.28 53.22ZM24.48 53.22L25.2103 53.9032L25.2157 53.8974L25.221 53.8915L24.48 53.22ZM26.76 48.24L27.7448 48.4138L27.7454 48.4105L26.76 48.24ZM4.18 40.56C4.18 33.7422 5.40448 28.5343 7.74508 24.8346L6.05492 23.7654C3.43552 27.9057 2.18 33.5378 2.18 40.56H4.18ZM7.74118 24.8408C10.031 21.2787 13.8251 19.42 19.38 19.42V17.42C13.3349 17.42 8.80895 19.4813 6.05882 23.7592L7.74118 24.8408ZM19.38 19.42C24.9354 19.42 28.7052 21.2787 30.9549 24.8346L32.6451 23.7654C29.9348 19.4813 25.4246 17.42 19.38 17.42V19.42ZM30.9588 24.8408C33.3363 28.5391 34.58 33.7445 34.58 40.56H36.58C36.58 33.5355 35.3037 27.9009 32.6412 23.7592L30.9588 24.8408ZM34.58 40.56C34.58 47.416 33.3362 52.6634 30.9563 56.4031L32.6437 57.4769C35.3038 53.2966 36.58 47.624 36.58 40.56H34.58ZM30.9525 56.4092C28.7009 60.0046 24.9311 61.88 19.38 61.88V63.88C25.4289 63.88 29.9391 61.7954 32.6475 57.4708L30.9525 56.4092ZM19.38 61.88C13.8294 61.88 10.0354 60.0044 7.74366 56.4031L6.05634 57.4769C8.80459 61.7956 13.3306 63.88 19.38 63.88V61.88ZM7.74752 56.4092C5.40461 52.6681 4.18 47.4182 4.18 40.56H2.18C2.18 47.6218 3.43539 53.2919 6.05248 57.4708L7.74752 56.4092ZM28.3 40.56C28.3 37.5608 28.0978 35.0102 27.6806 32.9239L25.7194 33.3161C26.1022 35.2298 26.3 37.6392 26.3 40.56H28.3ZM27.6848 32.9462C27.2986 30.7579 26.4708 28.9137 25.161 27.4685L23.679 28.8115C24.6892 29.9263 25.3814 31.402 25.7152 33.2938L27.6848 32.9462ZM25.1726 27.4815C23.807 25.9209 21.8114 25.22 19.38 25.22V27.22C21.4286 27.22 22.793 27.7991 23.6674 28.7985L25.1726 27.4815ZM19.38 25.22C16.9465 25.22 14.941 25.9215 13.539 27.4685L15.021 28.8115C15.939 27.7985 17.3335 27.22 19.38 27.22V25.22ZM13.5274 27.4815C12.2683 28.9205 11.4451 30.753 11.0187 32.9276L12.9813 33.3124C13.3549 31.407 14.0517 29.9195 15.0326 28.7985L13.5274 27.4815ZM11.0158 32.9428C10.6417 35.0211 10.46 37.5649 10.46 40.56H12.46C12.46 37.6351 12.6383 35.2189 12.9842 33.2971L11.0158 32.9428ZM10.46 40.56C10.46 43.6346 10.6417 46.2556 11.0146 48.4105L12.9854 48.0695C12.6383 46.0644 12.46 43.5654 12.46 40.56H10.46ZM11.0152 48.4138C11.4014 50.6021 12.2292 52.4463 13.539 53.8915L15.021 52.5485C14.0108 51.4337 13.3186 49.958 12.9848 48.0662L11.0152 48.4138ZM13.5497 53.9032C14.9539 55.4042 16.9558 56.08 19.38 56.08V54.08C17.3242 54.08 15.9261 53.5158 15.0103 52.5368L13.5497 53.9032ZM19.38 56.08C21.8042 56.08 23.8061 55.4042 25.2103 53.9032L23.7497 52.5368C22.8339 53.5158 21.4358 54.08 19.38 54.08V56.08ZM25.221 53.8915C26.5308 52.4463 27.3586 50.6021 27.7448 48.4138L25.7752 48.0662C25.4414 49.958 24.7492 51.4337 23.739 52.5485L25.221 53.8915ZM27.7454 48.4105C28.1183 46.2556 28.3 43.6346 28.3 40.56H26.3C26.3 43.5654 26.1217 46.0644 25.7747 48.0695L27.7454 48.4105ZM41.6091 54.48H40.6091V55.48H41.6091V54.48ZM41.6091 47.88L40.7893 47.3072L40.6091 47.5653V47.88H41.6091ZM61.2291 19.8V18.8H60.7079L60.4093 19.2272L61.2291 19.8ZM71.0091 19.8H72.0091V18.8H71.0091V19.8ZM71.0091 47.16H70.0091V48.16H71.0091V47.16ZM76.2891 47.16H77.2891V46.16H76.2891V47.16ZM76.2891 54.48V55.48H77.2891V54.48H76.2891ZM71.0091 54.48V53.48H70.0091V54.48H71.0091ZM71.0091 63V64H72.0091V63H71.0091ZM62.6091 63H61.6091V64H62.6091V63ZM62.6091 54.48H63.6091V53.48H62.6091V54.48ZM63.1491 28.8H64.1491V25.5106L62.3183 28.2434L63.1491 28.8ZM50.8491 47.16L50.0183 46.6034L48.9755 48.16H50.8491V47.16ZM63.1491 47.16V48.16H64.1491V47.16H63.1491ZM42.6091 54.48V47.88H40.6091V54.48H42.6091ZM42.4288 48.4528L62.0488 20.3728L60.4093 19.2272L40.7893 47.3072L42.4288 48.4528ZM61.2291 20.8H71.0091V18.8H61.2291V20.8ZM70.0091 19.8V47.16H72.0091V19.8H70.0091ZM71.0091 48.16H76.2891V46.16H71.0091V48.16ZM75.2891 47.16V54.48H77.2891V47.16H75.2891ZM76.2891 53.48H71.0091V55.48H76.2891V53.48ZM70.0091 54.48V63H72.0091V54.48H70.0091ZM71.0091 62H62.6091V64H71.0091V62ZM63.6091 63V54.48H61.6091V63H63.6091ZM62.6091 53.48H41.6091V55.48H62.6091V53.48ZM62.3183 28.2434L50.0183 46.6034L51.6799 47.7166L63.9799 29.3566L62.3183 28.2434ZM50.8491 48.16H63.1491V46.16H50.8491V48.16ZM64.1491 47.16V28.8H62.1491V47.16H64.1491ZM89.557 39.325L90.5296 39.5578L90.8246 38.325H89.557V39.325ZM82.807 67.525V68.525H83.5959L83.7796 67.7578L82.807 67.525ZM79.382 67.525L78.4095 67.2922L78.1144 68.525H79.382V67.525ZM86.132 39.325V38.325H85.3431L85.1595 39.0922L86.132 39.325ZM88.5845 39.0922L81.8345 67.2922L83.7796 67.7578L90.5296 39.5578L88.5845 39.0922ZM82.807 66.525H79.382V68.525H82.807V66.525ZM80.3546 67.7578L87.1046 39.5578L85.1595 39.0922L78.4095 67.2922L80.3546 67.7578ZM86.132 40.325H89.557V38.325H86.132V40.325Z" fill="url(#paint0_linear_1_237)"/>
<defs>
<linearGradient id="paint0_linear_1_237" x1="45.5" y1="0" x2="45.5" y2="76.5" gradientUnits="userSpaceOnUse">
<stop stop-color="#FFF0F0"/>
<stop offset="1" stop-color="#FFF0F0" stop-opacity="0"/>
</linearGradient>
</defs>
</svg>
