<svg width="209" height="44" fill="none" xmlns="http://www.w3.org/2000/svg"><path d="m163.744 12.142-3.205 3.868 3.261 3.814S174.052 8.3 174.052 7.803h-6.743l-3.565 4.339Zm-3.205 14.314 3.15 3.869 3.206 4.421h7.295l-10.335-12.02-3.316 3.73Z" fill="#fff"/><circle cx="159.503" cy="5.523" r="2.694" fill="#fff"/><path d="m144.373 2 15.13 19.067L142.715 42" stroke="#FF7425" stroke-width="5.027"/><path fill="#FF7425" d="M120.746 18.995h24.041v4.56h-24.041z"/><path fill-rule="evenodd" clip-rule="evenodd" d="M49.596 25.71H44c-.056.69.055 1.464.331 2.321.304.857.802 1.713 1.492 2.57.691.857 1.59 1.644 2.695 2.363 1.105.718 2.418 1.299 3.938 1.74 1.52.415 3.274.623 5.264.623 2.79 0 5.057-.332 6.798-.995 1.768-.663 3.067-1.59 3.896-2.777.857-1.216 1.285-2.64 1.285-4.27 0-1.326-.248-2.446-.746-3.358-.497-.911-1.216-1.657-2.155-2.238-.912-.608-2.018-1.091-3.317-1.45-1.27-.387-2.694-.691-4.269-.913-1.686-.248-3.095-.497-4.228-.746-1.133-.248-2.031-.51-2.694-.787-.663-.276-1.133-.594-1.41-.954a2.225 2.225 0 0 1-.414-1.326c0-1.271.566-2.17 1.7-2.694 1.16-.525 2.625-.788 4.393-.788 1.907 0 3.482.36 4.726 1.078 1.27.718 1.962 1.893 2.072 3.523h5.389c.055-2.874-.967-5.126-3.068-6.756-2.072-1.658-5.043-2.487-8.911-2.487-2.57 0-4.74.331-6.508.994-1.769.664-3.11 1.59-4.021 2.778-.884 1.188-1.326 2.57-1.326 4.145 0 1.27.29 2.376.87 3.316.608.912 1.423 1.686 2.446 2.321 1.05.636 2.252 1.16 3.606 1.575 1.354.387 2.79.691 4.31.912 1.935.276 3.496.553 4.685.83 1.188.248 2.058.58 2.611.994.553.387.83.953.83 1.7 0 .773-.222 1.436-.664 1.99-.442.552-1.12.98-2.031 1.284-.912.304-2.073.456-3.482.456-1.548 0-2.943-.207-4.187-.622-1.243-.442-2.252-1.036-3.026-1.782-.746-.774-1.174-1.63-1.285-2.57ZM0 23.718v-4.435h5.513v-6.796H0v-4.56h15.461c3.592 0 6.315.608 8.166 1.824 1.879 1.189 2.819 2.971 2.819 5.348 0 1.52-.373 2.721-1.12 3.606-.746.856-1.81 1.492-3.191 1.907-.82.25-1.732.446-2.735.586.657.048 1.292.116 1.906.201 1.216.166 2.28.47 3.191.912.912.442 1.63 1.064 2.156 1.865.525.774.787 1.796.787 3.068 0 1.658-.442 3.04-1.326 4.145-.884 1.077-2.114 1.893-3.69 2.445-1.574.553-3.398.857-5.47.912H0v-4.56h5.513v-6.468H0Zm5.513 6.469h10.86c1.741 0 3.081-.277 4.02-.83.94-.58 1.41-1.492 1.41-2.735 0-.912-.276-1.575-.829-1.99-.553-.414-1.285-.663-2.197-.746a24.498 24.498 0 0 0-2.943-.166H5.513v6.467Zm0-10.902h9.74c1.742 0 3.082-.249 4.022-.746.94-.525 1.409-1.41 1.409-2.653s-.47-2.114-1.41-2.611c-.939-.525-2.183-.788-3.73-.788H5.513v6.798ZM33.13 7.928h5.514v26.818H33.13V7.928Zm66.884 0V27.56L80.076 7.928h-5.513v26.818h5.513v-19.48l19.938 19.48h5.513V7.928h-5.513Zm17.424 22.217v-6.59l-.008-4.353h.008V12.53h20.643V7.928h-26.156v26.818h26.197v-4.6h-20.684Zm62.316-22.217h28.269v4.6h-11.358v22.218h-5.512V12.53h-11.399V7.928Z" fill="#fff"/></svg>