<svg width="87" height="84" fill="none" xmlns="http://www.w3.org/2000/svg"><path d="m6.9 24.3-.841-.54-.004.005.845.535Zm24.9 0-.845.535.004.006.841-.541Zm0 32.64-.844-.537-.003.006.847.531Zm-24.9 0-.848.53.004.007.844-.537Zm19.8-23.82-.985.174.002.011.002.011.981-.196Zm-2.28-4.98-.753.659.006.006.006.006.741-.671Zm-10.14 0-.741-.672-.006.007-.006.006.753.659ZM12 33.12l-.981-.192-.002.007-.001.008.984.177Zm0 15.12-.985.17v.004L12 48.24Zm2.28 4.98-.741.672.005.005.006.006.73-.683Zm10.2 0 .73.683.006-.006.005-.005-.741-.672Zm2.28-4.98.985.174v-.004l-.985-.17ZM4.18 40.56c0-6.818 1.224-12.026 3.565-15.725l-1.69-1.07c-2.62 4.14-3.875 9.773-3.875 16.795h2Zm3.561-15.72c2.29-3.561 6.084-5.42 11.639-5.42v-2c-6.045 0-10.571 2.061-13.321 6.34l1.682 1.08Zm11.639-5.42c5.555 0 9.325 1.859 11.575 5.415l1.69-1.07c-2.71-4.284-7.22-6.345-13.265-6.345v2Zm11.579 5.42c2.377 3.7 3.621 8.905 3.621 15.72h2c0-7.025-1.276-12.66-3.939-16.8l-1.682 1.08Zm3.621 15.72c0 6.856-1.244 12.103-3.624 15.843l1.688 1.074c2.66-4.18 3.936-9.853 3.936-16.917h-2Zm-3.627 15.85c-2.252 3.595-6.022 5.47-11.573 5.47v2c6.049 0 10.56-2.085 13.268-6.41l-1.696-1.06ZM19.38 61.88c-5.55 0-9.345-1.876-11.636-5.477l-1.688 1.074c2.749 4.319 7.275 6.403 13.324 6.403v-2ZM7.748 56.41C5.405 52.667 4.18 47.417 4.18 40.56h-2c0 7.062 1.255 12.732 3.872 16.91l1.696-1.06ZM28.3 40.56c0-3-.202-5.55-.62-7.636l-1.96.392c.382 1.914.58 4.323.58 7.244h2Zm-.615-7.614c-.386-2.188-1.214-4.032-2.524-5.477l-1.482 1.342c1.01 1.115 1.702 2.591 2.036 4.483l1.97-.348Zm-2.512-5.464c-1.366-1.561-3.362-2.262-5.793-2.262v2c2.049 0 3.413.58 4.287 1.579l1.506-1.317ZM19.38 25.22c-2.433 0-4.439.702-5.841 2.248l1.482 1.343c.918-1.012 2.313-1.591 4.359-1.591v-2Zm-5.853 2.262c-1.259 1.439-2.082 3.271-2.508 5.446l1.962.384c.374-1.905 1.07-3.392 2.052-4.513l-1.506-1.317Zm-2.511 5.46c-.374 2.08-.556 4.623-.556 7.618h2c0-2.925.178-5.341.524-7.263l-1.968-.354Zm-.556 7.618c0 3.075.182 5.696.555 7.85l1.97-.34c-.347-2.006-.525-4.505-.525-7.51h-2Zm.555 7.854c.386 2.188 1.214 4.032 2.524 5.477l1.482-1.343c-1.01-1.114-1.702-2.59-2.036-4.482l-1.97.348Zm2.535 5.49c1.404 1.5 3.406 2.176 5.83 2.176v-2c-2.056 0-3.454-.564-4.37-1.543l-1.46 1.366Zm5.83 2.176c2.424 0 4.426-.676 5.83-2.177l-1.46-1.366c-.916.979-2.314 1.543-4.37 1.543v2Zm5.841-2.188c1.31-1.446 2.138-3.29 2.524-5.478l-1.97-.348c-.334 1.892-1.026 3.368-2.036 4.482l1.482 1.343Zm2.524-5.482c.373-2.154.555-4.775.555-7.85h-2c0 3.005-.178 5.504-.525 7.51l1.97.34ZM42.09 30.78l-.999-.05-.052 1.05h1.051v-1Zm4.2-9.24.64.77v-.002l-.64-.768Zm17.88-1.74-.447.894.007.004.007.003.433-.901Zm4.68 4.14-.86.509.006.011.007.012.847-.532Zm-.36 12.3-.8-.6-.002.003.802.597Zm-4.62 3.48-.316-.949-.684.228v.721h1Zm0 .24h-1v.737l.704.218.296-.955Zm5.4 3.84-.82.571.003.006.005.006.812-.583Zm.3 13.5-.859-.512-.004.007-.004.007.867.498Zm-4.86 4.44.44.898.007-.004-.447-.894Zm-18.72-1.86-.626.78.626-.78Zm-4.5-10.08v-1h-1.037l.038 1.036 1-.036Zm8.16 0 1-.04-.04-.96h-.96v1Zm1.98 4.74-.695.719.011.011.013.011.671-.741Zm9.9.06-.72-.695.72.695Zm-9.42-11.16h-1v1h1v-1Zm0-6.9v-1h-1v1h1Zm8.7-9.72-.692.721.007.007.007.007.678-.735Zm-8.76.12.707.707-.707-.707Zm-1.74 3.84v1h.903l.092-.898-.995-.102Zm-7.221.05c.189-3.777 1.495-6.573 3.84-8.52l-1.278-1.54c-2.855 2.373-4.349 5.737-4.56 9.96l1.998.1Zm3.841-8.522c2.42-2.016 5.635-3.068 9.74-3.068v-2c-4.455 0-8.16 1.148-11.02 3.532l1.28 1.536Zm9.74-3.068c2.803 0 5.143.5 7.053 1.454l.894-1.788c-2.25-1.125-4.91-1.666-7.947-1.666v2Zm7.067 1.461c1.925.926 3.325 2.18 4.252 3.748l1.722-1.018c-1.153-1.951-2.873-3.458-5.108-4.532l-.866 1.802Zm4.266 3.77c.972 1.548 1.467 3.32 1.467 5.349h2c0-2.372-.585-4.52-1.773-6.412l-1.694 1.064Zm1.467 5.349c0 2.337-.608 4.258-1.78 5.82l1.6 1.2c1.468-1.958 2.18-4.317 2.18-7.02h-2Zm-1.782 5.823c-1.174 1.578-2.553 2.601-4.134 3.128l.632 1.898c2.02-.673 3.72-1.97 5.106-3.832l-1.604-1.194ZM62.87 39.72v.24h2v-.24h-2Zm.704 1.195c2.126.66 3.733 1.815 4.875 3.456l1.642-1.142c-1.418-2.039-3.41-3.444-5.925-4.224l-.592 1.91Zm4.884 3.468c1.168 1.629 1.792 3.77 1.792 6.497h2c0-3.032-.696-5.612-2.167-7.663l-1.625 1.166Zm1.792 6.497c0 2.238-.52 4.198-1.539 5.908l1.718 1.024c1.221-2.05 1.821-4.37 1.821-6.932h-2Zm-1.547 5.922c-.971 1.69-2.435 3.041-4.44 4.044l.894 1.788c2.315-1.157 4.091-2.766 5.28-4.836l-1.734-.996Zm-4.433 4.04c-1.951.957-4.353 1.458-7.24 1.458v2c3.113 0 5.831-.54 8.12-1.662l-.88-1.796ZM57.03 62.3c-4.349 0-7.79-1.094-10.414-3.2l-1.252 1.56c3.057 2.454 6.975 3.64 11.666 3.64v-2Zm-10.414-3.2c-2.564-2.058-3.974-5.117-4.127-9.336l-1.998.072c.168 4.66 1.757 8.322 4.873 10.824l1.252-1.56Zm-5.126-8.3h8.16v-2h-8.16v2Zm7.16-.96c.09 2.18.835 4.015 2.285 5.419l1.39-1.438c-1.03-.996-1.605-2.32-1.676-4.062l-1.998.082Zm2.309 5.441c1.51 1.369 3.513 1.999 5.891 1.999v-2c-2.022 0-3.498-.53-4.548-1.481l-1.343 1.482Zm5.891 1.999c2.223 0 4.078-.615 5.4-1.986l-1.44-1.388c-.838.869-2.103 1.374-3.96 1.374v2Zm5.4-1.985c1.321-1.37 1.96-3.109 1.96-5.135h-2c0 1.574-.48 2.794-1.4 3.745l1.44 1.39Zm1.96-5.135c0-2.619-.842-4.704-2.715-5.985l-1.13 1.65c1.168.799 1.845 2.154 1.845 4.335h2Zm-2.715-5.985c-1.77-1.21-4.375-1.735-7.645-1.735v2c3.13 0 5.245.516 6.515 1.385l1.13-1.65ZM53.85 42.44h-1.74v2h1.74v-2Zm-.74 1v-6.9h-2v6.9h2Zm-1-5.9h1.74v-2h-1.74v2Zm1.74 0c2.92 0 5.285-.483 6.946-1.594 1.732-1.159 2.574-2.916 2.574-5.106h-2c0 1.61-.578 2.703-1.686 3.444-1.179.789-3.074 1.256-5.834 1.256v2Zm9.52-6.7c0-1.934-.593-3.566-1.882-4.755l-1.356 1.47c.791.73 1.238 1.78 1.238 3.285h2Zm-1.867-4.741c-1.248-1.198-2.995-1.719-5.073-1.719v2c1.763 0 2.935.44 3.688 1.161l1.385-1.442ZM56.43 24.38c-2.068 0-3.811.577-5.087 1.853l1.414 1.414c.804-.804 1.98-1.267 3.673-1.267v-2Zm-5.087 1.853c-1.18 1.18-1.847 2.683-2.028 4.445l1.99.204c.14-1.358.633-2.415 1.452-3.235l-1.414-1.414ZM50.31 29.78h-8.22v2h8.22v-2Zm35.498 9.545.973.233.295-1.233h-1.268v1Zm-6.75 28.2v1h.789l.184-.767-.973-.233Zm-3.425 0-.973-.233-.295 1.233h1.268v-1Zm6.75-28.2v-1h-.789l-.184.767.973.233Zm2.453-.233-6.75 28.2 1.945.466 6.75-28.2-1.945-.466Zm-5.778 27.433h-3.425v2h3.425v-2Zm-2.452 1.233 6.75-28.2-1.946-.466-6.75 28.2 1.946.466Zm5.777-27.433h3.425v-2h-3.425v2Z" fill="url(#a)"/><defs><linearGradient id="a" x1="43.5" y1="0" x2="43.5" y2="76.5" gradientUnits="userSpaceOnUse"><stop stop-color="#FFF0F0"/><stop offset="1" stop-color="#FFF0F0" stop-opacity="0"/></linearGradient></defs></svg>