<svg width="91" height="84" fill="none" xmlns="http://www.w3.org/2000/svg"><path d="m6.9 24.3-.841-.54-.004.005.845.535Zm24.9 0-.845.535.004.006.841-.541Zm0 32.64-.844-.537-.003.006.847.531Zm-24.9 0-.848.53.004.007.844-.537Zm19.8-23.82-.985.174.002.011.002.011.981-.196Zm-2.28-4.98-.753.659.006.006.006.006.741-.671Zm-10.14 0-.741-.672-.006.007-.006.006.753.659ZM12 33.12l-.981-.192-.002.007-.001.008.984.177Zm0 15.12-.985.17v.004L12 48.24Zm2.28 4.98-.741.672.005.005.006.006.73-.683Zm10.2 0 .73.683.006-.006.005-.005-.741-.672Zm2.28-4.98.985.174v-.004l-.985-.17ZM4.18 40.56c0-6.818 1.224-12.026 3.565-15.725l-1.69-1.07c-2.62 4.14-3.875 9.773-3.875 16.795h2Zm3.561-15.72c2.29-3.561 6.084-5.42 11.639-5.42v-2c-6.045 0-10.571 2.061-13.321 6.34l1.682 1.08Zm11.639-5.42c5.555 0 9.325 1.859 11.575 5.415l1.69-1.07c-2.71-4.284-7.22-6.345-13.265-6.345v2Zm11.579 5.42c2.377 3.7 3.621 8.905 3.621 15.72h2c0-7.025-1.276-12.66-3.939-16.8l-1.682 1.08Zm3.621 15.72c0 6.856-1.244 12.103-3.624 15.843l1.688 1.074c2.66-4.18 3.936-9.853 3.936-16.917h-2Zm-3.627 15.85c-2.252 3.595-6.022 5.47-11.573 5.47v2c6.049 0 10.56-2.085 13.268-6.41l-1.696-1.06ZM19.38 61.88c-5.55 0-9.345-1.876-11.636-5.477l-1.688 1.074c2.749 4.319 7.275 6.403 13.324 6.403v-2ZM7.748 56.41C5.405 52.667 4.18 47.417 4.18 40.56h-2c0 7.062 1.255 12.732 3.872 16.91l1.696-1.06ZM28.3 40.56c0-3-.202-5.55-.62-7.636l-1.96.392c.382 1.914.58 4.323.58 7.244h2Zm-.615-7.614c-.386-2.188-1.214-4.032-2.524-5.477l-1.482 1.342c1.01 1.115 1.702 2.591 2.036 4.483l1.97-.348Zm-2.512-5.464c-1.366-1.561-3.362-2.262-5.793-2.262v2c2.049 0 3.413.58 4.287 1.579l1.506-1.317ZM19.38 25.22c-2.433 0-4.439.702-5.841 2.248l1.482 1.343c.918-1.012 2.313-1.591 4.359-1.591v-2Zm-5.853 2.262c-1.259 1.439-2.082 3.271-2.508 5.446l1.962.384c.374-1.905 1.07-3.392 2.052-4.513l-1.506-1.317Zm-2.511 5.46c-.374 2.08-.556 4.623-.556 7.618h2c0-2.925.178-5.341.524-7.263l-1.968-.354Zm-.556 7.618c0 3.075.182 5.696.555 7.85l1.97-.34c-.347-2.006-.525-4.505-.525-7.51h-2Zm.555 7.854c.386 2.188 1.214 4.032 2.524 5.477l1.482-1.343c-1.01-1.114-1.702-2.59-2.036-4.482l-1.97.348Zm2.535 5.49c1.404 1.5 3.406 2.176 5.83 2.176v-2c-2.056 0-3.454-.564-4.37-1.543l-1.46 1.366Zm5.83 2.176c2.424 0 4.426-.676 5.83-2.177l-1.46-1.366c-.916.979-2.314 1.543-4.37 1.543v2Zm5.841-2.188c1.31-1.446 2.138-3.29 2.524-5.478l-1.97-.348c-.334 1.892-1.026 3.368-2.036 4.482l1.482 1.343Zm2.524-5.482c.373-2.154.555-4.775.555-7.85h-2c0 3.005-.178 5.504-.525 7.51l1.97.34Zm13.864 6.07h-1v1h1v-1Zm0-6.6-.82-.573-.18.258v.315h1ZM61.23 19.8v-1h-.521l-.299.427.82.573Zm9.78 0h1v-1h-1v1Zm0 27.36h-1v1h1v-1Zm5.28 0h1v-1h-1v1Zm0 7.32v1h1v-1h-1Zm-5.28 0v-1h-1v1h1Zm0 8.52v1h1v-1h-1Zm-8.4 0h-1v1h1v-1Zm0-8.52h1v-1h-1v1Zm.54-25.68h1v-3.29l-1.83 2.733.83.557Zm-12.3 18.36-.83-.557-1.044 1.557h1.874v-1Zm12.3 0v1h1v-1h-1Zm-20.54 7.32v-6.6h-2v6.6h2Zm-.18-6.027 19.62-28.08-1.64-1.146-19.62 28.08 1.64 1.146ZM61.23 20.8h9.78v-2h-9.78v2Zm8.78-1v27.36h2V19.8h-2Zm1 28.36h5.28v-2h-5.28v2Zm4.28-1v7.32h2v-7.32h-2Zm1 6.32h-5.28v2h5.28v-2Zm-6.28 1V63h2v-8.52h-2Zm1 7.52h-8.4v2h8.4v-2Zm-7.4 1v-8.52h-2V63h2Zm-1-9.52h-21v2h21v-2Zm-.29-25.237-12.3 18.36 1.66 1.114 12.3-18.36-1.66-1.114ZM50.848 48.16h12.3v-2h-12.3v2Zm13.3-1V28.8h-2v18.36h2Zm25.408-7.835.973.233.295-1.233h-1.268v1Zm-6.75 28.2v1h.789l.184-.767-.973-.233Zm-3.425 0-.973-.233-.295 1.233h1.268v-1Zm6.75-28.2v-1h-.789l-.184.767.973.233Zm2.453-.233-6.75 28.2 1.945.466 6.75-28.2-1.945-.466Zm-5.778 27.433h-3.425v2h3.425v-2Zm-2.452 1.233 6.75-28.2-1.946-.466-6.75 28.2 1.946.466Zm5.777-27.433h3.425v-2h-3.425v2Z" fill="url(#a)"/><defs><linearGradient id="a" x1="45.5" y1="0" x2="45.5" y2="76.5" gradientUnits="userSpaceOnUse"><stop stop-color="#FFF0F0"/><stop offset="1" stop-color="#FFF0F0" stop-opacity="0"/></linearGradient></defs></svg>