<svg width="86" height="84" fill="none" xmlns="http://www.w3.org/2000/svg"><path d="m6.9 24.3-.841-.54-.004.005.845.535Zm24.9 0-.845.535.004.006.841-.541Zm0 32.64-.844-.537-.003.006.847.531Zm-24.9 0-.848.53.004.007.844-.537Zm19.8-23.82-.985.174.002.01.002.012.981-.196Zm-2.28-4.98-.753.659.006.006.006.006.741-.671Zm-10.14 0-.741-.672-.006.007-.006.006.753.659ZM12 33.12l-.981-.192-.002.007-.001.008.984.177Zm0 15.12-.985.17v.004L12 48.24Zm2.28 4.98-.741.672.005.005.006.006.73-.683Zm10.2 0 .73.683.006-.006.005-.005-.741-.672Zm2.28-4.98.985.174v-.004l-.985-.17ZM4.18 40.56c0-6.818 1.224-12.026 3.565-15.725l-1.69-1.07c-2.62 4.14-3.875 9.773-3.875 16.795h2Zm3.561-15.72c2.29-3.561 6.084-5.42 11.639-5.42v-2c-6.045 0-10.571 2.061-13.321 6.34l1.682 1.08Zm11.639-5.42c5.555 0 9.325 1.859 11.575 5.415l1.69-1.07c-2.71-4.284-7.22-6.345-13.265-6.345v2Zm11.579 5.42c2.377 3.7 3.621 8.904 3.621 15.72h2c0-7.025-1.276-12.66-3.939-16.8l-1.682 1.08Zm3.621 15.72c0 6.856-1.244 12.103-3.624 15.843l1.688 1.074c2.66-4.18 3.936-9.853 3.936-16.917h-2Zm-3.627 15.85c-2.252 3.595-6.022 5.47-11.573 5.47v2c6.049 0 10.56-2.085 13.268-6.41l-1.696-1.06ZM19.38 61.88c-5.55 0-9.345-1.876-11.636-5.477l-1.688 1.074c2.749 4.319 7.275 6.403 13.324 6.403v-2ZM7.748 56.41C5.405 52.667 4.18 47.417 4.18 40.56h-2c0 7.062 1.255 12.732 3.872 16.91l1.696-1.06ZM28.3 40.56c0-3-.202-5.55-.62-7.636l-1.96.392c.382 1.914.58 4.323.58 7.244h2Zm-.615-7.614c-.386-2.188-1.214-4.032-2.524-5.478l-1.482 1.343c1.01 1.115 1.702 2.591 2.036 4.483l1.97-.348Zm-2.512-5.464c-1.366-1.561-3.362-2.262-5.793-2.262v2c2.049 0 3.413.58 4.287 1.579l1.506-1.317ZM19.38 25.22c-2.433 0-4.439.702-5.841 2.248l1.482 1.343c.918-1.012 2.313-1.591 4.359-1.591v-2Zm-5.853 2.262c-1.259 1.439-2.082 3.271-2.508 5.446l1.962.384c.374-1.905 1.07-3.393 2.052-4.513l-1.506-1.317Zm-2.511 5.46c-.374 2.08-.556 4.623-.556 7.618h2c0-2.925.178-5.341.524-7.263l-1.968-.354Zm-.556 7.618c0 3.075.182 5.696.555 7.85l1.97-.34c-.347-2.006-.525-4.505-.525-7.51h-2Zm.555 7.854c.386 2.188 1.214 4.032 2.524 5.477l1.482-1.343c-1.01-1.114-1.702-2.59-2.036-4.482l-1.97.348Zm2.535 5.49c1.404 1.5 3.406 2.176 5.83 2.176v-2c-2.056 0-3.454-.564-4.37-1.543l-1.46 1.366Zm5.83 2.176c2.424 0 4.426-.676 5.83-2.177l-1.46-1.366c-.916.979-2.314 1.543-4.37 1.543v2Zm5.841-2.188c1.31-1.446 2.138-3.29 2.524-5.478l-1.97-.348c-.334 1.892-1.026 3.368-2.036 4.482l1.482 1.343Zm2.524-5.482c.373-2.154.555-4.775.555-7.85h-2c0 3.005-.178 5.504-.525 7.51l1.97.34Zm16.864 5.11-.64-.768-.006.005.646.763Zm9.18-7.98.681.732.007-.006-.688-.726Zm5.7-6.72.837.548-.837-.548Zm.84-11.64-.77.637.77-.637Zm-9.06.3.774.633.005-.005.004-.006-.783-.622Zm-1.68 5.46v1h.983l.017-.983-1-.017Zm-8.16 0-1-.033-.034 1.033h1.034v-1Zm4.26-10.92-.674-.739-.005.005.68.734Zm20.82-.06-.707.707.006.006.701-.713Zm1.14 18.48.86.51-.86-.51Zm-5.76 7.44.694.72.007-.006-.7-.714Zm-8.46 7.56-.648-.762-2.071 1.762h2.72v-1Zm17.7 0h1v-1h-1v1Zm0 6.96v1h1v-1h-1Zm-29.64 0h-1v1h1v-1Zm0-6.24-.646-.763-.354.3v.463h1Zm3.76-1.872c3.847-3.205 6.922-5.878 9.221-8.016l-1.362-1.464c-2.261 2.102-5.306 4.75-9.14 7.944l1.281 1.536Zm9.228-8.022c2.329-2.206 4.28-4.505 5.849-6.898l-1.673-1.096c-1.473 2.247-3.32 4.428-5.552 6.542l1.376 1.452Zm5.849-6.898c1.6-2.444 2.443-4.912 2.443-7.388h-2c0 2.003-.678 4.096-2.116 6.292l1.672 1.096Zm2.443-7.388c0-2.19-.516-4.044-1.67-5.438l-1.54 1.275c.766.927 1.21 2.273 1.21 4.163h2Zm-1.67-5.438c-1.207-1.459-3.016-2.102-5.21-2.102v2c1.806 0 2.957.517 3.67 1.377l1.54-1.275Zm-5.21-2.102c-2.253 0-4.103.781-5.403 2.418l1.566 1.244c.86-1.083 2.09-1.662 3.837-1.662v-2Zm-5.394 2.407c-1.266 1.547-1.863 3.611-1.906 6.076l2 .034c.037-2.175.56-3.751 1.454-4.844l-1.548-1.266Zm-.906 5.093h-8.16v2h8.16v-2Zm-7.16 1.033c.154-4.62 1.511-7.972 3.94-10.22l-1.36-1.467c-2.931 2.713-4.413 6.641-4.58 11.62l2 .067Zm3.934-10.214c2.511-2.29 5.7-3.459 9.646-3.459v-2c-4.374 0-8.065 1.311-10.994 3.981l1.348 1.478Zm9.646-3.459c4.383 0 7.595 1.169 9.793 3.367l1.414-1.414C64.534 18.57 60.746 17.3 56.01 17.3v2Zm9.799 3.373c2.218 2.182 3.361 5.09 3.361 8.827h2c0-4.182-1.297-7.635-3.959-10.253l-1.402 1.426Zm3.361 8.827c0 2.93-.786 5.736-2.38 8.43l1.72 1.02c1.766-2.986 2.66-6.14 2.66-9.45h-2Zm-2.38 8.43c-1.64 2.773-3.508 5.182-5.6 7.236l1.4 1.428c2.228-2.187 4.2-4.737 5.92-7.645l-1.72-1.018Zm-5.594 7.23c-2.14 2.06-4.942 4.566-8.414 7.518l1.296 1.524c3.489-2.968 6.325-5.502 8.506-7.602l-1.388-1.44Zm-7.766 9.28h17.7v-2h-17.7v2Zm16.7-1v6.96h2v-6.96h-2Zm1 5.96H41.49v2h29.64v-2Zm-28.64 1v-6.24h-2v6.24h2Zm-.354-5.477 3.12-2.64-1.292-1.526-3.12 2.64 1.292 1.526Zm42.207-17.598.973.233.295-1.233h-1.268v1Zm-6.75 28.2v1h.79l.183-.767-.973-.233Zm-3.425 0-.972-.233-.295 1.233h1.267v-1Zm6.75-28.2v-1h-.789l-.183.767.972.233Zm2.453-.233-6.75 28.2 1.945.466 6.75-28.2-1.945-.466Zm-5.778 27.433h-3.425v2h3.425v-2Zm-2.452 1.233 6.75-28.2-1.945-.466-6.75 28.2 1.945.466Zm5.777-27.433h3.425v-2h-3.425v2Z" fill="url(#a)"/><defs><linearGradient id="a" x1="43" y1="0" x2="43" y2="76.5" gradientUnits="userSpaceOnUse"><stop stop-color="#FFF0F0"/><stop offset="1" stop-color="#FFF0F0" stop-opacity="0"/></linearGradient></defs></svg>