<svg width="74" height="70" fill="none" xmlns="http://www.w3.org/2000/svg"><path d="M69.867 45.273c4.16 4.16 4.16 10.918 0 15.077-4.159 4.158-10.917 4.158-15.076 0-4.159-4.16-10.917-4.16-15.076 0-4.159 4.158-10.917 4.158-15.076 0-4.159-4.16-4.159-10.918 0-15.077 4.16-4.158 10.917-4.158 15.076 0 4.16 4.16 10.917 4.16 15.076 0 4.16-4.158 10.917-4.158 15.076 0Z" stroke="#fff" stroke-opacity=".15" stroke-miterlimit="10"/><path d="M21.92 8.883c1.52-5.678 7.358-9.037 13.036-7.518 5.679 1.52 9.038 7.358 7.518 13.037-1.52 5.678 1.84 11.517 7.519 13.037 5.678 1.52 9.037 7.357 7.518 13.036-1.52 5.678-7.358 9.038-13.037 7.518-5.678-1.52-9.038-7.358-7.518-13.037 1.52-5.678-1.84-11.516-7.518-13.036-5.639-1.52-9.038-7.358-7.518-13.037Z" stroke="#fff" stroke-opacity=".15" stroke-miterlimit="10"/><path d="M14.402 68.588c-5.679 1.52-11.517-1.84-13.037-7.518-1.52-5.679 1.84-11.517 7.518-13.037 5.679-1.52 9.038-7.358 7.518-13.037-1.52-5.678 1.84-11.516 7.518-13.036 5.679-1.52 11.517 1.84 13.037 7.518 1.52 5.678-1.84 11.517-7.518 13.037-5.679 1.52-9.038 7.358-7.518 13.036 1.56 5.679-1.84 11.517-7.518 13.037Z" stroke="#fff" stroke-opacity=".15" stroke-miterlimit="10"/></svg>